solid OpenSCAD_Model
  facet normal 0.7776071519369319 -0.47683619827242874 0.40982234843115933
    outer loop
      vertex 0 -0.3187119948743449 0.577884932081842
      vertex 0.5 0 0
      vertex 0 -0.2938926261462366 0.6067627457812106
    endloop
  endfacet
  facet normal 0.7933053670858375 -0.4040246489587615 0.4554455813668126
    outer loop
      vertex 0 -0.2679133974894984 0.6332459441265111
      vertex 0.5 0 0
      vertex 0 -0.24087683705085772 0.6572300100328976
    endloop
  endfacet
  facet normal 0.8077671638591295 -0.32096140032668363 0.4944653562094241
    outer loop
      vertex 0 -0.21288964578253622 0.6786202893495147
      vertex 0.5 0 0
      vertex 0 -0.18406227634233896 0.6973323644161885
    endloop
  endfacet
  facet normal 0.8007689628123752 -0.36372097594845626 0.47589507231268474
    outer loop
      vertex 0 -0.24087683705085772 0.6572300100328976
      vertex 0.5 0 0
      vertex 0 -0.21288964578253622 0.6786202893495147
    endloop
  endfacet
  facet normal 0.7855341544723896 -0.441753669733286 0.43334719040801795
    outer loop
      vertex 0 -0.2679133974894984 0.6332459441265111
      vertex 0 -0.2938926261462366 0.6067627457812106
      vertex 0.5 0 0
    endloop
  endfacet
  facet normal 0.8141409717872362 -0.2759165677399631 0.5109251664421446
    outer loop
      vertex 0 -0.15450849718747373 0.7132923872213651
      vertex 0 -0.18406227634233896 0.6973323644161885
      vertex 0.5 0 0
    endloop
  endfacet
  facet normal 0.8197359292577383 -0.2288119384429339 0.5250505719546826
    outer loop
      vertex 0 -0.15450849718747373 0.7132923872213651
      vertex 0.5 0 0
      vertex 0 -0.12434494358242743 0.7264373708464733
    endloop
  endfacet
  facet normal 0.8244086337045952 -0.17992795517601298 0.5366342661622545
    outer loop
      vertex 0 -0.09369065729286241 0.7367154380465165
      vertex 0 -0.12434494358242743 0.7264373708464733
      vertex 0.5 0 0
    endloop
  endfacet
  facet normal 0.8280335645535747 -0.12959693597098107 0.5454952338560205
    outer loop
      vertex 0 -0.06266661678215203 0.7440860259858584
      vertex 0 -0.09369065729286241 0.7367154380465165
      vertex 0.5 0 0
    endloop
  endfacet
  facet normal 0.8305096570331482 -0.07819644824495138 0.5514880098937395
    outer loop
      vertex 0 -0.06266661678215203 0.7440860259858584
      vertex 0.5 0 0
      vertex 0 -0.03139525976465664 0.7485200463212037
    endloop
  endfacet
  facet normal 0.8317659911887767 -0.026139299324909264 0.5545106607925178
    outer loop
      vertex 0 -0.03139525976465664 0.7485200463212037
      vertex 0.5 0 0
      vertex 0 0 0.75
    endloop
  endfacet
  facet normal 0.7470003221357603 -0.5905374433619014 0.30537853021563116
    outer loop
      vertex 0 -0.38525662138789474 0.4780679923115172
      vertex 0 -0.4045084971874737 0.44083893921935485
      vertex 0.5 0 0
    endloop
  endfacet
  facet normal 0.7338497163643367 -0.6319671300092098 0.2491628792174013
    outer loop
      vertex 0 -0.4221639627510075 0.4018700962342475
      vertex 0 -0.43815334002193174 0.3613152555762865
      vertex 0.5 0 0
    endloop
  endfacet
  facet normal 0.74017373378291 -0.61248554144168 0.27749649609095584
    outer loop
      vertex 0 -0.4045084971874737 0.44083893921935485
      vertex 0 -0.4221639627510075 0.4018700962342475
      vertex 0.5 0 0
    endloop
  endfacet
  facet normal 0.7280924208097908 -0.6490553667964375 0.22047348500915176
    outer loop
      vertex 0 -0.43815334002193174 0.3613152555762865
      vertex 0 -0.45241352623300984 0.31933446867380433
      vertex 0.5 0 0
    endloop
  endfacet
  facet normal 0.722955009523927 -0.6638228606615747 0.19150786894366087
    outer loop
      vertex 0 -0.45241352623300984 0.31933446867380433
      vertex 0 -0.46488824294412573 0.2760934145135084
      vertex 0.5 0 0
    endloop
  endfacet
  facet normal 0.718480852423855 -0.6763385491537803 0.16233124045866892
    outer loop
      vertex 0 -0.46488824294412573 0.2760934145135084
      vertex 0 -0.47552825814757677 0.23176274578121053
      vertex 0.5 0 0
    endloop
  endfacet
  facet normal 0.714704694010065 -0.6866652326227873 0.13299646110732596
    outer loop
      vertex 0 -0.47552825814757677 0.23176274578121053
      vertex 0 -0.48429158056431554 0.18651741537364114
      vertex 0.5 0 0
    endloop
  endfacet
  facet normal 0.711653728034001 -0.694857672200219 0.10354606105401092
    outer loop
      vertex 0 -0.48429158056431554 0.18651741537364114
      vertex 0 -0.49114362536434436 0.14053598593929362
      vertex 0.5 0 0
    endloop
  endfacet
  facet normal 0.7093485360593358 -0.7009611605027103 0.07401422739697323
    outer loop
      vertex 0 -0.49114362536434436 0.14053598593929362
      vertex 0 -0.496057350657239 0.09399992517322804
      vertex 0.5 0 0
    endloop
  endfacet
  facet normal 0.7078038612950991 -0.7050104828193925 0.04442874126638382
    outer loop
      vertex 0 -0.496057350657239 0.09399992517322804
      vertex 0 -0.49901336421413583 0.04709288964698532
      vertex 0.5 0 0
    endloop
  endfacet
  facet normal 0.7070291999710062 -0.7070291999710062 0.01481285849247014
    outer loop
      vertex 0 -0.49901336421413583 0.04709288964698532
      vertex 0 -0.5 0
      vertex 0.5 0 0
    endloop
  endfacet
  facet normal 0.7618430162177139 -0.5389703122809314 0.35931354152062156
    outer loop
      vertex 0 -0.34227355296434425 0.5467264705660587
      vertex 0 -0.3644843137107059 0.5134103294465163
      vertex 0.5 0 0
    endloop
  endfacet
  facet normal 0.7696666593162381 -0.5092409738297273 0.385080334618548
    outer loop
      vertex 0 -0.3187119948743449 0.577884932081842
      vertex 0 -0.34227355296434425 0.5467264705660587
      vertex 0.5 0 0
    endloop
  endfacet
  facet normal 0.7542532047126014 -0.5660529911400954 0.33269522750127
    outer loop
      vertex 0 -0.38525662138789474 0.4780679923115172
      vertex 0.5 0 0
      vertex 0 -0.3644843137107059 0.5134103294465163
    endloop
  endfacet
  facet normal 0.8317659911887767 0.026139299324909264 0.5545106607925178
    outer loop
      vertex 0 0 0.75
      vertex 0.5 0 0
      vertex 0 0.03139525976465664 0.7485200463212037
    endloop
  endfacet
  facet normal 0.8305096570331482 0.07819644824495138 0.5514880098937395
    outer loop
      vertex 0 0.03139525976465664 0.7485200463212037
      vertex 0.5 0 0
      vertex 0 0.06266661678215203 0.7440860259858584
    endloop
  endfacet
  facet normal 0.8280335645535747 0.12959693597098107 0.5454952338560205
    outer loop
      vertex 0 0.06266661678215203 0.7440860259858584
      vertex 0.5 0 0
      vertex 0 0.09369065729286241 0.7367154380465165
    endloop
  endfacet
  facet normal 0.8244086337045952 0.17992795517601298 0.5366342661622545
    outer loop
      vertex 0 0.09369065729286241 0.7367154380465165
      vertex 0.5 0 0
      vertex 0 0.12434494358242743 0.7264373708464733
    endloop
  endfacet
  facet normal 0.8197359292577383 0.2288119384429339 0.5250505719546826
    outer loop
      vertex 0 0.12434494358242743 0.7264373708464733
      vertex 0.5 0 0
      vertex 0 0.15450849718747373 0.7132923872213651
    endloop
  endfacet
  facet normal 0.8141409717872362 0.2759165677399631 0.5109251664421446
    outer loop
      vertex 0 0.15450849718747373 0.7132923872213651
      vertex 0.5 0 0
      vertex 0 0.18406227634233896 0.6973323644161885
    endloop
  endfacet
  facet normal 0.8077671638591295 0.32096140032668363 0.4944653562094241
    outer loop
      vertex 0 0.18406227634233896 0.6973323644161885
      vertex 0.5 0 0
      vertex 0 0.21288964578253622 0.6786202893495147
    endloop
  endfacet
  facet normal 0.8007689628123752 0.36372097594845626 0.47589507231268474
    outer loop
      vertex 0 0.21288964578253622 0.6786202893495147
      vertex 0.5 0 0
      vertex 0 0.24087683705085772 0.6572300100328976
    endloop
  endfacet
  facet normal 0.7933053670858375 0.4040246489587615 0.4554455813668127
    outer loop
      vertex 0 0.24087683705085772 0.6572300100328976
      vertex 0.5 0 0
      vertex 0 0.2679133974894984 0.6332459441265111
    endloop
  endfacet
  facet normal 0.7855341544723896 0.441753669733286 0.43334719040801795
    outer loop
      vertex 0 0.2679133974894984 0.6332459441265111
      vertex 0.5 0 0
      vertex 0 0.2938926261462366 0.6067627457812106
    endloop
  endfacet
  facet normal 0.7776071519369319 0.47683619827242874 0.40982234843115933
    outer loop
      vertex 0 0.2938926261462366 0.6067627457812106
      vertex 0.5 0 0
      vertex 0 0.3187119948743449 0.577884932081842
    endloop
  endfacet
  facet normal 0.7696666593162381 0.5092409738297273 0.385080334618548
    outer loop
      vertex 0 0.3187119948743449 0.577884932081842
      vertex 0.5 0 0
      vertex 0 0.34227355296434425 0.5467264705660587
    endloop
  endfacet
  facet normal 0.7618430162177139 0.5389703122809314 0.35931354152062156
    outer loop
      vertex 0 0.34227355296434425 0.5467264705660587
      vertex 0.5 0 0
      vertex 0 0.3644843137107059 0.5134103294465163
    endloop
  endfacet
  facet normal 0.7542532047126014 0.5660529911400954 0.33269522750127
    outer loop
      vertex 0 0.3644843137107059 0.5134103294465163
      vertex 0.5 0 0
      vertex 0 0.38525662138789474 0.4780679923115172
    endloop
  endfacet
  facet normal 0.7470003221357603 0.5905374433619014 0.30537853021563116
    outer loop
      vertex 0 0.38525662138789474 0.4780679923115172
      vertex 0.5 0 0
      vertex 0 0.4045084971874737 0.44083893921935485
    endloop
  endfacet
  facet normal 0.74017373378291 0.61248554144168 0.27749649609095584
    outer loop
      vertex 0 0.4045084971874737 0.44083893921935485
      vertex 0.5 0 0
      vertex 0 0.4221639627510075 0.4018700962342475
    endloop
  endfacet
  facet normal 0.7338497163643369 0.6319671300092091 0.2491628792174021
    outer loop
      vertex 0 0.4221639627510075 0.4018700962342475
      vertex 0.5 0 0
      vertex 0 0.43815334002193185 0.3613152555762864
    endloop
  endfacet
  facet normal 0.7280924208097906 0.649055366796438 0.22047348500915082
    outer loop
      vertex 0 0.43815334002193185 0.3613152555762864
      vertex 0.5 0 0
      vertex 0 0.4524135262330098 0.3193344686738045
    endloop
  endfacet
  facet normal 0.7229550095239269 0.6638228606615746 0.19150786894366095
    outer loop
      vertex 0 0.4524135262330098 0.3193344686738045
      vertex 0.5 0 0
      vertex 0 0.46488824294412573 0.2760934145135084
    endloop
  endfacet
  facet normal 0.718480852423855 0.6763385491537803 0.16233124045866892
    outer loop
      vertex 0 0.46488824294412573 0.2760934145135084
      vertex 0.5 0 0
      vertex 0 0.47552825814757677 0.23176274578121053
    endloop
  endfacet
  facet normal 0.714704694010065 0.6866652326227873 0.13299646110732596
    outer loop
      vertex 0 0.47552825814757677 0.23176274578121053
      vertex 0.5 0 0
      vertex 0 0.48429158056431554 0.18651741537364114
    endloop
  endfacet
  facet normal 0.711653728034001 0.6948576722002193 0.10354606105401053
    outer loop
      vertex 0.5 0 0
      vertex 0 0.49114362536434436 0.14053598593929342
      vertex 0 0.48429158056431554 0.18651741537364114
    endloop
  endfacet
  facet normal 0.7093485360593357 0.7009611605027103 0.0740142273969738
    outer loop
      vertex 0.5 0 0
      vertex 0 0.496057350657239 0.09399992517322821
      vertex 0 0.49114362536434436 0.14053598593929342
    endloop
  endfacet
  facet normal 0.707803861295099 0.7050104828193924 0.04442874126638331
    outer loop
      vertex 0.5 0 0
      vertex 0 0.49901336421413583 0.04709288964698495
      vertex 0 0.496057350657239 0.09399992517322821
    endloop
  endfacet
  facet normal 0.7070291999710061 0.7070291999710061 0.014812858492470254
    outer loop
      vertex 0.5 0 0
      vertex 0 0.5 0
      vertex 0 0.49901336421413583 0.04709288964698495
    endloop
  endfacet
  facet normal -0.7070291999710062 -0.7070291999710062 -0.01481285849247014
    outer loop
      vertex -0.49901336421413583 0 -0.04709288964698532
      vertex 0 -0.5 0
      vertex -0.5 0 0
    endloop
  endfacet
  facet normal -0.7050104828193925 -0.7078038612950991 -0.04442874126638382
    outer loop
      vertex -0.496057350657239 0 -0.09399992517322804
      vertex 0 -0.5 0
      vertex -0.49901336421413583 0 -0.04709288964698532
    endloop
  endfacet
  facet normal -0.7009611605027103 -0.7093485360593358 -0.07401422739697323
    outer loop
      vertex -0.49114362536434436 0 -0.14053598593929362
      vertex 0 -0.5 0
      vertex -0.496057350657239 0 -0.09399992517322804
    endloop
  endfacet
  facet normal -0.694857672200219 -0.711653728034001 -0.10354606105401092
    outer loop
      vertex -0.48429158056431554 0 -0.18651741537364114
      vertex 0 -0.5 0
      vertex -0.49114362536434436 0 -0.14053598593929362
    endloop
  endfacet
  facet normal -0.6866652326227873 -0.714704694010065 -0.13299646110732596
    outer loop
      vertex -0.47552825814757677 0 -0.23176274578121053
      vertex 0 -0.5 0
      vertex -0.48429158056431554 0 -0.18651741537364114
    endloop
  endfacet
  facet normal -0.6763385491537803 -0.718480852423855 -0.16233124045866892
    outer loop
      vertex -0.46488824294412573 0 -0.2760934145135084
      vertex 0 -0.5 0
      vertex -0.47552825814757677 0 -0.23176274578121053
    endloop
  endfacet
  facet normal -0.6638228606615747 -0.722955009523927 -0.19150786894366087
    outer loop
      vertex -0.45241352623300984 0 -0.31933446867380433
      vertex 0 -0.5 0
      vertex -0.46488824294412573 0 -0.2760934145135084
    endloop
  endfacet
  facet normal -0.6490553667964375 -0.7280924208097908 -0.22047348500915176
    outer loop
      vertex -0.43815334002193174 0 -0.3613152555762865
      vertex 0 -0.5 0
      vertex -0.45241352623300984 0 -0.31933446867380433
    endloop
  endfacet
  facet normal -0.6319671300092098 -0.7338497163643367 -0.2491628792174013
    outer loop
      vertex -0.4221639627510075 0 -0.4018700962342475
      vertex 0 -0.5 0
      vertex -0.43815334002193174 0 -0.3613152555762865
    endloop
  endfacet
  facet normal -0.61248554144168 -0.74017373378291 -0.27749649609095584
    outer loop
      vertex -0.4045084971874737 0 -0.44083893921935485
      vertex 0 -0.5 0
      vertex -0.4221639627510075 0 -0.4018700962342475
    endloop
  endfacet
  facet normal -0.5905374433619014 -0.7470003221357603 -0.30537853021563116
    outer loop
      vertex -0.38525662138789474 0 -0.4780679923115172
      vertex 0 -0.5 0
      vertex -0.4045084971874737 0 -0.44083893921935485
    endloop
  endfacet
  facet normal -0.5660529911400954 -0.7542532047126014 -0.33269522750127
    outer loop
      vertex -0.38525662138789474 0 -0.4780679923115172
      vertex -0.3644843137107059 0 -0.5134103294465163
      vertex 0 -0.5 0
    endloop
  endfacet
  facet normal -0.5389703122809314 -0.7618430162177139 -0.35931354152062156
    outer loop
      vertex -0.34227355296434425 0 -0.5467264705660587
      vertex 0 -0.5 0
      vertex -0.3644843137107059 0 -0.5134103294465163
    endloop
  endfacet
  facet normal -0.5092409738297273 -0.7696666593162381 -0.385080334618548
    outer loop
      vertex -0.3187119948743449 0 -0.577884932081842
      vertex 0 -0.5 0
      vertex -0.34227355296434425 0 -0.5467264705660587
    endloop
  endfacet
  facet normal -0.47683619827242874 -0.7776071519369319 -0.40982234843115933
    outer loop
      vertex -0.3187119948743449 0 -0.577884932081842
      vertex -0.2938926261462366 0 -0.6067627457812106
      vertex 0 -0.5 0
    endloop
  endfacet
  facet normal -0.441753669733286 -0.7855341544723896 -0.43334719040801795
    outer loop
      vertex -0.2679133974894984 0 -0.6332459441265111
      vertex 0 -0.5 0
      vertex -0.2938926261462366 0 -0.6067627457812106
    endloop
  endfacet
  facet normal -0.4040246489587615 -0.7933053670858375 -0.4554455813668126
    outer loop
      vertex -0.2679133974894984 0 -0.6332459441265111
      vertex -0.24087683705085772 0 -0.6572300100328976
      vertex 0 -0.5 0
    endloop
  endfacet
  facet normal -0.36372097594845626 -0.8007689628123752 -0.47589507231268474
    outer loop
      vertex -0.24087683705085772 0 -0.6572300100328976
      vertex -0.21288964578253622 0 -0.6786202893495147
      vertex 0 -0.5 0
    endloop
  endfacet
  facet normal -0.32096140032668363 -0.8077671638591295 -0.4944653562094241
    outer loop
      vertex -0.21288964578253622 0 -0.6786202893495147
      vertex -0.18406227634233896 0 -0.6973323644161885
      vertex 0 -0.5 0
    endloop
  endfacet
  facet normal -0.2759165677399631 -0.8141409717872362 -0.5109251664421446
    outer loop
      vertex -0.15450849718747373 0 -0.7132923872213651
      vertex 0 -0.5 0
      vertex -0.18406227634233896 0 -0.6973323644161885
    endloop
  endfacet
  facet normal -0.2288119384429339 -0.8197359292577383 -0.5250505719546826
    outer loop
      vertex -0.15450849718747373 0 -0.7132923872213651
      vertex -0.12434494358242743 0 -0.7264373708464733
      vertex 0 -0.5 0
    endloop
  endfacet
  facet normal -0.17992795517601298 -0.8244086337045952 -0.5366342661622545
    outer loop
      vertex -0.09369065729286241 0 -0.7367154380465165
      vertex 0 -0.5 0
      vertex -0.12434494358242743 0 -0.7264373708464733
    endloop
  endfacet
  facet normal -0.12959693597098107 -0.8280335645535747 -0.5454952338560205
    outer loop
      vertex -0.06266661678215203 0 -0.7440860259858584
      vertex 0 -0.5 0
      vertex -0.09369065729286241 0 -0.7367154380465165
    endloop
  endfacet
  facet normal -0.07819644824495138 -0.8305096570331482 -0.5514880098937395
    outer loop
      vertex -0.06266661678215203 0 -0.7440860259858584
      vertex -0.03139525976465664 0 -0.7485200463212037
      vertex 0 -0.5 0
    endloop
  endfacet
  facet normal -0.026139299324909264 -0.8317659911887767 -0.5545106607925178
    outer loop
      vertex -0.03139525976465664 0 -0.7485200463212037
      vertex 0 0 -0.75
      vertex 0 -0.5 0
    endloop
  endfacet
  facet normal 0.5660529911400954 -0.7542532047126014 -0.33269522750127
    outer loop
      vertex 0.3644843137107059 0 -0.5134103294465163
      vertex 0.38525662138789474 0 -0.4780679923115172
      vertex 0 -0.5 0
    endloop
  endfacet
  facet normal 0.5092409738297273 -0.7696666593162381 -0.385080334618548
    outer loop
      vertex 0.3187119948743449 0 -0.577884932081842
      vertex 0.34227355296434425 0 -0.5467264705660587
      vertex 0 -0.5 0
    endloop
  endfacet
  facet normal 0.5389703122809314 -0.7618430162177139 -0.35931354152062156
    outer loop
      vertex 0.34227355296434425 0 -0.5467264705660587
      vertex 0.3644843137107059 0 -0.5134103294465163
      vertex 0 -0.5 0
    endloop
  endfacet
  facet normal 0.7070291999710061 -0.7070291999710061 -0.014812858492470254
    outer loop
      vertex 0 -0.5 0
      vertex 0.49901336421413583 0 -0.04709288964698495
      vertex 0.5 0 0
    endloop
  endfacet
  facet normal 0.7050104828193924 -0.707803861295099 -0.04442874126638331
    outer loop
      vertex 0 -0.5 0
      vertex 0.496057350657239 0 -0.09399992517322821
      vertex 0.49901336421413583 0 -0.04709288964698495
    endloop
  endfacet
  facet normal 0.7009611605027103 -0.7093485360593357 -0.0740142273969738
    outer loop
      vertex 0 -0.5 0
      vertex 0.49114362536434436 0 -0.14053598593929342
      vertex 0.496057350657239 0 -0.09399992517322821
    endloop
  endfacet
  facet normal 0.6948576722002193 -0.711653728034001 -0.10354606105401053
    outer loop
      vertex 0 -0.5 0
      vertex 0.48429158056431554 0 -0.18651741537364114
      vertex 0.49114362536434436 0 -0.14053598593929342
    endloop
  endfacet
  facet normal 0.6866652326227873 -0.714704694010065 -0.13299646110732596
    outer loop
      vertex 0.47552825814757677 0 -0.23176274578121053
      vertex 0.48429158056431554 0 -0.18651741537364114
      vertex 0 -0.5 0
    endloop
  endfacet
  facet normal 0.6763385491537803 -0.718480852423855 -0.16233124045866892
    outer loop
      vertex 0.46488824294412573 0 -0.2760934145135084
      vertex 0.47552825814757677 0 -0.23176274578121053
      vertex 0 -0.5 0
    endloop
  endfacet
  facet normal 0.6638228606615746 -0.7229550095239269 -0.19150786894366095
    outer loop
      vertex 0.4524135262330098 0 -0.3193344686738045
      vertex 0.46488824294412573 0 -0.2760934145135084
      vertex 0 -0.5 0
    endloop
  endfacet
  facet normal 0.649055366796438 -0.7280924208097906 -0.22047348500915082
    outer loop
      vertex 0.43815334002193185 0 -0.3613152555762864
      vertex 0.4524135262330098 0 -0.3193344686738045
      vertex 0 -0.5 0
    endloop
  endfacet
  facet normal 0.61248554144168 -0.74017373378291 -0.27749649609095584
    outer loop
      vertex 0.4045084971874737 0 -0.44083893921935485
      vertex 0.4221639627510075 0 -0.4018700962342475
      vertex 0 -0.5 0
    endloop
  endfacet
  facet normal 0.6319671300092091 -0.7338497163643369 -0.2491628792174021
    outer loop
      vertex 0.4221639627510075 0 -0.4018700962342475
      vertex 0.43815334002193185 0 -0.3613152555762864
      vertex 0 -0.5 0
    endloop
  endfacet
  facet normal 0.5905374433619014 -0.7470003221357603 -0.30537853021563116
    outer loop
      vertex 0.38525662138789474 0 -0.4780679923115172
      vertex 0.4045084971874737 0 -0.44083893921935485
      vertex 0 -0.5 0
    endloop
  endfacet
  facet normal 0.026139299324909264 -0.8317659911887767 -0.5545106607925178
    outer loop
      vertex 0 0 -0.75
      vertex 0.03139525976465664 0 -0.7485200463212037
      vertex 0 -0.5 0
    endloop
  endfacet
  facet normal 0.07819644824495138 -0.8305096570331482 -0.5514880098937395
    outer loop
      vertex 0.03139525976465664 0 -0.7485200463212037
      vertex 0.06266661678215203 0 -0.7440860259858584
      vertex 0 -0.5 0
    endloop
  endfacet
  facet normal 0.12959693597098107 -0.8280335645535747 -0.5454952338560205
    outer loop
      vertex 0.06266661678215203 0 -0.7440860259858584
      vertex 0.09369065729286241 0 -0.7367154380465165
      vertex 0 -0.5 0
    endloop
  endfacet
  facet normal 0.17992795517601298 -0.8244086337045952 -0.5366342661622545
    outer loop
      vertex 0.09369065729286241 0 -0.7367154380465165
      vertex 0.12434494358242743 0 -0.7264373708464733
      vertex 0 -0.5 0
    endloop
  endfacet
  facet normal 0.2288119384429339 -0.8197359292577383 -0.5250505719546826
    outer loop
      vertex 0.12434494358242743 0 -0.7264373708464733
      vertex 0.15450849718747373 0 -0.7132923872213651
      vertex 0 -0.5 0
    endloop
  endfacet
  facet normal 0.2759165677399631 -0.8141409717872362 -0.5109251664421446
    outer loop
      vertex 0.15450849718747373 0 -0.7132923872213651
      vertex 0.18406227634233896 0 -0.6973323644161885
      vertex 0 -0.5 0
    endloop
  endfacet
  facet normal 0.441753669733286 -0.7855341544723896 -0.43334719040801795
    outer loop
      vertex 0.2679133974894984 0 -0.6332459441265111
      vertex 0.2938926261462366 0 -0.6067627457812106
      vertex 0 -0.5 0
    endloop
  endfacet
  facet normal 0.36372097594845626 -0.8007689628123752 -0.47589507231268474
    outer loop
      vertex 0.21288964578253622 0 -0.6786202893495147
      vertex 0.24087683705085772 0 -0.6572300100328976
      vertex 0 -0.5 0
    endloop
  endfacet
  facet normal 0.32096140032668363 -0.8077671638591295 -0.4944653562094241
    outer loop
      vertex 0.18406227634233896 0 -0.6973323644161885
      vertex 0.21288964578253622 0 -0.6786202893495147
      vertex 0 -0.5 0
    endloop
  endfacet
  facet normal 0.4040246489587615 -0.7933053670858375 -0.4554455813668127
    outer loop
      vertex 0.24087683705085772 0 -0.6572300100328976
      vertex 0.2679133974894984 0 -0.6332459441265111
      vertex 0 -0.5 0
    endloop
  endfacet
  facet normal 0.47683619827242874 -0.7776071519369319 -0.40982234843115933
    outer loop
      vertex 0.2938926261462366 0 -0.6067627457812106
      vertex 0.3187119948743449 0 -0.577884932081842
      vertex 0 -0.5 0
    endloop
  endfacet
  facet normal -0.7776071519369319 -0.47683619827242874 0.40982234843115933
    outer loop
      vertex 0 -0.3187119948743449 0.577884932081842
      vertex 0 -0.2938926261462366 0.6067627457812106
      vertex -0.5 0 0
    endloop
  endfacet
  facet normal -0.7933053670858375 -0.4040246489587615 0.4554455813668126
    outer loop
      vertex 0 -0.2679133974894984 0.6332459441265111
      vertex 0 -0.24087683705085772 0.6572300100328976
      vertex -0.5 0 0
    endloop
  endfacet
  facet normal -0.8077671638591295 -0.32096140032668363 0.4944653562094241
    outer loop
      vertex 0 -0.21288964578253622 0.6786202893495147
      vertex 0 -0.18406227634233896 0.6973323644161885
      vertex -0.5 0 0
    endloop
  endfacet
  facet normal -0.8007689628123752 -0.36372097594845626 0.47589507231268474
    outer loop
      vertex 0 -0.24087683705085772 0.6572300100328976
      vertex 0 -0.21288964578253622 0.6786202893495147
      vertex -0.5 0 0
    endloop
  endfacet
  facet normal -0.7855341544723896 -0.441753669733286 0.43334719040801795
    outer loop
      vertex 0 -0.2679133974894984 0.6332459441265111
      vertex -0.5 0 0
      vertex 0 -0.2938926261462366 0.6067627457812106
    endloop
  endfacet
  facet normal -0.8141409717872362 -0.2759165677399631 0.5109251664421446
    outer loop
      vertex 0 -0.15450849718747373 0.7132923872213651
      vertex -0.5 0 0
      vertex 0 -0.18406227634233896 0.6973323644161885
    endloop
  endfacet
  facet normal -0.8197359292577383 -0.2288119384429339 0.5250505719546826
    outer loop
      vertex 0 -0.15450849718747373 0.7132923872213651
      vertex 0 -0.12434494358242743 0.7264373708464733
      vertex -0.5 0 0
    endloop
  endfacet
  facet normal -0.8244086337045952 -0.17992795517601298 0.5366342661622545
    outer loop
      vertex 0 -0.09369065729286241 0.7367154380465165
      vertex -0.5 0 0
      vertex 0 -0.12434494358242743 0.7264373708464733
    endloop
  endfacet
  facet normal -0.8280335645535747 -0.12959693597098107 0.5454952338560205
    outer loop
      vertex 0 -0.06266661678215203 0.7440860259858584
      vertex -0.5 0 0
      vertex 0 -0.09369065729286241 0.7367154380465165
    endloop
  endfacet
  facet normal -0.8305096570331482 -0.07819644824495138 0.5514880098937395
    outer loop
      vertex 0 -0.06266661678215203 0.7440860259858584
      vertex 0 -0.03139525976465664 0.7485200463212037
      vertex -0.5 0 0
    endloop
  endfacet
  facet normal -0.8317659911887767 -0.026139299324909264 0.5545106607925178
    outer loop
      vertex 0 -0.03139525976465664 0.7485200463212037
      vertex 0 0 0.75
      vertex -0.5 0 0
    endloop
  endfacet
  facet normal -0.7470003221357603 -0.5905374433619014 0.30537853021563116
    outer loop
      vertex 0 -0.38525662138789474 0.4780679923115172
      vertex -0.5 0 0
      vertex 0 -0.4045084971874737 0.44083893921935485
    endloop
  endfacet
  facet normal -0.7338497163643367 -0.6319671300092098 0.2491628792174013
    outer loop
      vertex 0 -0.4221639627510075 0.4018700962342475
      vertex -0.5 0 0
      vertex 0 -0.43815334002193174 0.3613152555762865
    endloop
  endfacet
  facet normal -0.74017373378291 -0.61248554144168 0.27749649609095584
    outer loop
      vertex 0 -0.4045084971874737 0.44083893921935485
      vertex -0.5 0 0
      vertex 0 -0.4221639627510075 0.4018700962342475
    endloop
  endfacet
  facet normal -0.7280924208097908 -0.6490553667964375 0.22047348500915176
    outer loop
      vertex 0 -0.43815334002193174 0.3613152555762865
      vertex -0.5 0 0
      vertex 0 -0.45241352623300984 0.31933446867380433
    endloop
  endfacet
  facet normal -0.722955009523927 -0.6638228606615747 0.19150786894366087
    outer loop
      vertex 0 -0.45241352623300984 0.31933446867380433
      vertex -0.5 0 0
      vertex 0 -0.46488824294412573 0.2760934145135084
    endloop
  endfacet
  facet normal -0.718480852423855 -0.6763385491537803 0.16233124045866892
    outer loop
      vertex 0 -0.46488824294412573 0.2760934145135084
      vertex -0.5 0 0
      vertex 0 -0.47552825814757677 0.23176274578121053
    endloop
  endfacet
  facet normal -0.714704694010065 -0.6866652326227873 0.13299646110732596
    outer loop
      vertex 0 -0.47552825814757677 0.23176274578121053
      vertex -0.5 0 0
      vertex 0 -0.48429158056431554 0.18651741537364114
    endloop
  endfacet
  facet normal -0.711653728034001 -0.694857672200219 0.10354606105401092
    outer loop
      vertex 0 -0.48429158056431554 0.18651741537364114
      vertex -0.5 0 0
      vertex 0 -0.49114362536434436 0.14053598593929362
    endloop
  endfacet
  facet normal -0.7093485360593358 -0.7009611605027103 0.07401422739697323
    outer loop
      vertex 0 -0.49114362536434436 0.14053598593929362
      vertex -0.5 0 0
      vertex 0 -0.496057350657239 0.09399992517322804
    endloop
  endfacet
  facet normal -0.7078038612950991 -0.7050104828193925 0.04442874126638382
    outer loop
      vertex 0 -0.496057350657239 0.09399992517322804
      vertex -0.5 0 0
      vertex 0 -0.49901336421413583 0.04709288964698532
    endloop
  endfacet
  facet normal -0.7070291999710062 -0.7070291999710062 0.01481285849247014
    outer loop
      vertex 0 -0.49901336421413583 0.04709288964698532
      vertex -0.5 0 0
      vertex 0 -0.5 0
    endloop
  endfacet
  facet normal -0.7618430162177139 -0.5389703122809314 0.35931354152062156
    outer loop
      vertex 0 -0.34227355296434425 0.5467264705660587
      vertex -0.5 0 0
      vertex 0 -0.3644843137107059 0.5134103294465163
    endloop
  endfacet
  facet normal -0.7696666593162381 -0.5092409738297273 0.385080334618548
    outer loop
      vertex 0 -0.3187119948743449 0.577884932081842
      vertex -0.5 0 0
      vertex 0 -0.34227355296434425 0.5467264705660587
    endloop
  endfacet
  facet normal -0.7542532047126014 -0.5660529911400954 0.33269522750127
    outer loop
      vertex 0 -0.38525662138789474 0.4780679923115172
      vertex 0 -0.3644843137107059 0.5134103294465163
      vertex -0.5 0 0
    endloop
  endfacet
  facet normal -0.8317659911887767 0.026139299324909264 0.5545106607925178
    outer loop
      vertex 0 0 0.75
      vertex 0 0.03139525976465664 0.7485200463212037
      vertex -0.5 0 0
    endloop
  endfacet
  facet normal -0.8305096570331482 0.07819644824495138 0.5514880098937395
    outer loop
      vertex 0 0.03139525976465664 0.7485200463212037
      vertex 0 0.06266661678215203 0.7440860259858584
      vertex -0.5 0 0
    endloop
  endfacet
  facet normal -0.8280335645535747 0.12959693597098107 0.5454952338560205
    outer loop
      vertex 0 0.06266661678215203 0.7440860259858584
      vertex 0 0.09369065729286241 0.7367154380465165
      vertex -0.5 0 0
    endloop
  endfacet
  facet normal -0.8244086337045952 0.17992795517601298 0.5366342661622545
    outer loop
      vertex 0 0.09369065729286241 0.7367154380465165
      vertex 0 0.12434494358242743 0.7264373708464733
      vertex -0.5 0 0
    endloop
  endfacet
  facet normal -0.8197359292577383 0.2288119384429339 0.5250505719546826
    outer loop
      vertex 0 0.12434494358242743 0.7264373708464733
      vertex 0 0.15450849718747373 0.7132923872213651
      vertex -0.5 0 0
    endloop
  endfacet
  facet normal -0.8141409717872362 0.2759165677399631 0.5109251664421446
    outer loop
      vertex 0 0.15450849718747373 0.7132923872213651
      vertex 0 0.18406227634233896 0.6973323644161885
      vertex -0.5 0 0
    endloop
  endfacet
  facet normal -0.8077671638591295 0.32096140032668363 0.4944653562094241
    outer loop
      vertex 0 0.18406227634233896 0.6973323644161885
      vertex 0 0.21288964578253622 0.6786202893495147
      vertex -0.5 0 0
    endloop
  endfacet
  facet normal -0.8007689628123752 0.36372097594845626 0.47589507231268474
    outer loop
      vertex 0 0.21288964578253622 0.6786202893495147
      vertex 0 0.24087683705085772 0.6572300100328976
      vertex -0.5 0 0
    endloop
  endfacet
  facet normal -0.7933053670858375 0.4040246489587615 0.4554455813668127
    outer loop
      vertex 0 0.24087683705085772 0.6572300100328976
      vertex 0 0.2679133974894984 0.6332459441265111
      vertex -0.5 0 0
    endloop
  endfacet
  facet normal -0.7855341544723896 0.441753669733286 0.43334719040801795
    outer loop
      vertex 0 0.2679133974894984 0.6332459441265111
      vertex 0 0.2938926261462366 0.6067627457812106
      vertex -0.5 0 0
    endloop
  endfacet
  facet normal -0.7776071519369319 0.47683619827242874 0.40982234843115933
    outer loop
      vertex 0 0.2938926261462366 0.6067627457812106
      vertex 0 0.3187119948743449 0.577884932081842
      vertex -0.5 0 0
    endloop
  endfacet
  facet normal -0.7696666593162381 0.5092409738297273 0.385080334618548
    outer loop
      vertex 0 0.3187119948743449 0.577884932081842
      vertex 0 0.34227355296434425 0.5467264705660587
      vertex -0.5 0 0
    endloop
  endfacet
  facet normal -0.7618430162177139 0.5389703122809314 0.35931354152062156
    outer loop
      vertex 0 0.34227355296434425 0.5467264705660587
      vertex 0 0.3644843137107059 0.5134103294465163
      vertex -0.5 0 0
    endloop
  endfacet
  facet normal -0.7542532047126014 0.5660529911400954 0.33269522750127
    outer loop
      vertex 0 0.3644843137107059 0.5134103294465163
      vertex 0 0.38525662138789474 0.4780679923115172
      vertex -0.5 0 0
    endloop
  endfacet
  facet normal -0.7470003221357603 0.5905374433619014 0.30537853021563116
    outer loop
      vertex 0 0.38525662138789474 0.4780679923115172
      vertex 0 0.4045084971874737 0.44083893921935485
      vertex -0.5 0 0
    endloop
  endfacet
  facet normal -0.74017373378291 0.61248554144168 0.27749649609095584
    outer loop
      vertex 0 0.4045084971874737 0.44083893921935485
      vertex 0 0.4221639627510075 0.4018700962342475
      vertex -0.5 0 0
    endloop
  endfacet
  facet normal -0.7338497163643369 0.6319671300092091 0.2491628792174021
    outer loop
      vertex 0 0.4221639627510075 0.4018700962342475
      vertex 0 0.43815334002193185 0.3613152555762864
      vertex -0.5 0 0
    endloop
  endfacet
  facet normal -0.7280924208097908 0.6490553667964378 0.22047348500915073
    outer loop
      vertex -0.5 0 0
      vertex 0 0.43815334002193185 0.3613152555762864
      vertex 0 0.4524135262330098 0.3193344686738045
    endloop
  endfacet
  facet normal -0.7229550095239268 0.6638228606615747 0.191507868943661
    outer loop
      vertex -0.5 0 0
      vertex 0 0.4524135262330098 0.3193344686738045
      vertex 0 0.46488824294412573 0.2760934145135084
    endloop
  endfacet
  facet normal -0.7184808524238548 0.6763385491537806 0.162331240458669
    outer loop
      vertex -0.5 0 0
      vertex 0 0.46488824294412573 0.2760934145135084
      vertex 0 0.47552825814757677 0.23176274578121053
    endloop
  endfacet
  facet normal -0.714704694010065 0.6866652326227874 0.132996461107326
    outer loop
      vertex -0.5 0 0
      vertex 0 0.47552825814757677 0.23176274578121053
      vertex 0 0.48429158056431554 0.18651741537364114
    endloop
  endfacet
  facet normal -0.711653728034001 0.6948576722002193 0.10354606105401053
    outer loop
      vertex -0.5 0 0
      vertex 0 0.48429158056431554 0.18651741537364114
      vertex 0 0.49114362536434436 0.14053598593929342
    endloop
  endfacet
  facet normal -0.7093485360593357 0.7009611605027103 0.0740142273969738
    outer loop
      vertex -0.5 0 0
      vertex 0 0.49114362536434436 0.14053598593929342
      vertex 0 0.496057350657239 0.09399992517322821
    endloop
  endfacet
  facet normal -0.707803861295099 0.7050104828193924 0.04442874126638331
    outer loop
      vertex -0.5 0 0
      vertex 0 0.496057350657239 0.09399992517322821
      vertex 0 0.49901336421413583 0.04709288964698495
    endloop
  endfacet
  facet normal -0.7070291999710061 0.7070291999710061 0.014812858492470254
    outer loop
      vertex -0.5 0 0
      vertex 0 0.49901336421413583 0.04709288964698495
      vertex 0 0.5 0
    endloop
  endfacet
  facet normal -0.7070291999710062 0.7070291999710062 -0.01481285849247014
    outer loop
      vertex -0.49901336421413583 0 -0.04709288964698532
      vertex -0.5 0 0
      vertex 0 0.5 0
    endloop
  endfacet
  facet normal -0.7050104828193925 0.7078038612950991 -0.04442874126638382
    outer loop
      vertex -0.496057350657239 0 -0.09399992517322804
      vertex -0.49901336421413583 0 -0.04709288964698532
      vertex 0 0.5 0
    endloop
  endfacet
  facet normal -0.7009611605027103 0.7093485360593358 -0.07401422739697323
    outer loop
      vertex -0.49114362536434436 0 -0.14053598593929362
      vertex -0.496057350657239 0 -0.09399992517322804
      vertex 0 0.5 0
    endloop
  endfacet
  facet normal -0.694857672200219 0.711653728034001 -0.10354606105401092
    outer loop
      vertex -0.48429158056431554 0 -0.18651741537364114
      vertex -0.49114362536434436 0 -0.14053598593929362
      vertex 0 0.5 0
    endloop
  endfacet
  facet normal -0.6866652326227873 0.714704694010065 -0.13299646110732596
    outer loop
      vertex -0.47552825814757677 0 -0.23176274578121053
      vertex -0.48429158056431554 0 -0.18651741537364114
      vertex 0 0.5 0
    endloop
  endfacet
  facet normal -0.6763385491537803 0.718480852423855 -0.16233124045866892
    outer loop
      vertex -0.46488824294412573 0 -0.2760934145135084
      vertex -0.47552825814757677 0 -0.23176274578121053
      vertex 0 0.5 0
    endloop
  endfacet
  facet normal -0.6638228606615747 0.722955009523927 -0.19150786894366087
    outer loop
      vertex -0.45241352623300984 0 -0.31933446867380433
      vertex -0.46488824294412573 0 -0.2760934145135084
      vertex 0 0.5 0
    endloop
  endfacet
  facet normal -0.6490553667964375 0.7280924208097908 -0.22047348500915176
    outer loop
      vertex -0.43815334002193174 0 -0.3613152555762865
      vertex -0.45241352623300984 0 -0.31933446867380433
      vertex 0 0.5 0
    endloop
  endfacet
  facet normal -0.6319671300092098 0.7338497163643367 -0.2491628792174013
    outer loop
      vertex -0.4221639627510075 0 -0.4018700962342475
      vertex -0.43815334002193174 0 -0.3613152555762865
      vertex 0 0.5 0
    endloop
  endfacet
  facet normal -0.61248554144168 0.74017373378291 -0.27749649609095584
    outer loop
      vertex -0.4045084971874737 0 -0.44083893921935485
      vertex -0.4221639627510075 0 -0.4018700962342475
      vertex 0 0.5 0
    endloop
  endfacet
  facet normal -0.5905374433619014 0.7470003221357603 -0.30537853021563116
    outer loop
      vertex -0.38525662138789474 0 -0.4780679923115172
      vertex -0.4045084971874737 0 -0.44083893921935485
      vertex 0 0.5 0
    endloop
  endfacet
  facet normal -0.5660529911400954 0.7542532047126014 -0.33269522750127
    outer loop
      vertex -0.38525662138789474 0 -0.4780679923115172
      vertex 0 0.5 0
      vertex -0.3644843137107059 0 -0.5134103294465163
    endloop
  endfacet
  facet normal -0.5389703122809314 0.7618430162177139 -0.35931354152062156
    outer loop
      vertex -0.34227355296434425 0 -0.5467264705660587
      vertex -0.3644843137107059 0 -0.5134103294465163
      vertex 0 0.5 0
    endloop
  endfacet
  facet normal -0.5092409738297273 0.7696666593162381 -0.385080334618548
    outer loop
      vertex -0.3187119948743449 0 -0.577884932081842
      vertex -0.34227355296434425 0 -0.5467264705660587
      vertex 0 0.5 0
    endloop
  endfacet
  facet normal -0.47683619827242874 0.7776071519369319 -0.40982234843115933
    outer loop
      vertex -0.3187119948743449 0 -0.577884932081842
      vertex 0 0.5 0
      vertex -0.2938926261462366 0 -0.6067627457812106
    endloop
  endfacet
  facet normal -0.441753669733286 0.7855341544723896 -0.43334719040801795
    outer loop
      vertex -0.2679133974894984 0 -0.6332459441265111
      vertex -0.2938926261462366 0 -0.6067627457812106
      vertex 0 0.5 0
    endloop
  endfacet
  facet normal -0.4040246489587615 0.7933053670858375 -0.4554455813668126
    outer loop
      vertex -0.2679133974894984 0 -0.6332459441265111
      vertex 0 0.5 0
      vertex -0.24087683705085772 0 -0.6572300100328976
    endloop
  endfacet
  facet normal -0.36372097594845626 0.8007689628123752 -0.47589507231268474
    outer loop
      vertex -0.24087683705085772 0 -0.6572300100328976
      vertex 0 0.5 0
      vertex -0.21288964578253622 0 -0.6786202893495147
    endloop
  endfacet
  facet normal -0.32096140032668363 0.8077671638591295 -0.4944653562094241
    outer loop
      vertex -0.21288964578253622 0 -0.6786202893495147
      vertex 0 0.5 0
      vertex -0.18406227634233896 0 -0.6973323644161885
    endloop
  endfacet
  facet normal -0.2759165677399631 0.8141409717872362 -0.5109251664421446
    outer loop
      vertex -0.15450849718747373 0 -0.7132923872213651
      vertex -0.18406227634233896 0 -0.6973323644161885
      vertex 0 0.5 0
    endloop
  endfacet
  facet normal -0.2288119384429339 0.8197359292577383 -0.5250505719546826
    outer loop
      vertex -0.15450849718747373 0 -0.7132923872213651
      vertex 0 0.5 0
      vertex -0.12434494358242743 0 -0.7264373708464733
    endloop
  endfacet
  facet normal -0.17992795517601298 0.8244086337045952 -0.5366342661622545
    outer loop
      vertex -0.09369065729286241 0 -0.7367154380465165
      vertex -0.12434494358242743 0 -0.7264373708464733
      vertex 0 0.5 0
    endloop
  endfacet
  facet normal -0.12959693597098107 0.8280335645535747 -0.5454952338560205
    outer loop
      vertex -0.06266661678215203 0 -0.7440860259858584
      vertex -0.09369065729286241 0 -0.7367154380465165
      vertex 0 0.5 0
    endloop
  endfacet
  facet normal -0.07819644824495138 0.8305096570331482 -0.5514880098937395
    outer loop
      vertex -0.06266661678215203 0 -0.7440860259858584
      vertex 0 0.5 0
      vertex -0.03139525976465664 0 -0.7485200463212037
    endloop
  endfacet
  facet normal -0.026139299324909264 0.8317659911887767 -0.5545106607925178
    outer loop
      vertex -0.03139525976465664 0 -0.7485200463212037
      vertex 0 0.5 0
      vertex 0 0 -0.75
    endloop
  endfacet
  facet normal 0.5660529911400954 0.7542532047126014 -0.33269522750127
    outer loop
      vertex 0.3644843137107059 0 -0.5134103294465163
      vertex 0 0.5 0
      vertex 0.38525662138789474 0 -0.4780679923115172
    endloop
  endfacet
  facet normal 0.5092409738297273 0.7696666593162381 -0.385080334618548
    outer loop
      vertex 0.3187119948743449 0 -0.577884932081842
      vertex 0 0.5 0
      vertex 0.34227355296434425 0 -0.5467264705660587
    endloop
  endfacet
  facet normal 0.5389703122809314 0.7618430162177139 -0.35931354152062156
    outer loop
      vertex 0.34227355296434425 0 -0.5467264705660587
      vertex 0 0.5 0
      vertex 0.3644843137107059 0 -0.5134103294465163
    endloop
  endfacet
  facet normal 0.7070291999710061 0.7070291999710061 -0.014812858492470254
    outer loop
      vertex 0.49901336421413583 0 -0.04709288964698495
      vertex 0 0.5 0
      vertex 0.5 0 0
    endloop
  endfacet
  facet normal 0.7050104828193924 0.707803861295099 -0.04442874126638331
    outer loop
      vertex 0 0.5 0
      vertex 0.49901336421413583 0 -0.04709288964698495
      vertex 0.496057350657239 0 -0.09399992517322821
    endloop
  endfacet
  facet normal 0.7009611605027103 0.7093485360593357 -0.0740142273969738
    outer loop
      vertex 0 0.5 0
      vertex 0.496057350657239 0 -0.09399992517322821
      vertex 0.49114362536434436 0 -0.14053598593929342
    endloop
  endfacet
  facet normal 0.6948576722002193 0.711653728034001 -0.10354606105401053
    outer loop
      vertex 0 0.5 0
      vertex 0.49114362536434436 0 -0.14053598593929342
      vertex 0.48429158056431554 0 -0.18651741537364114
    endloop
  endfacet
  facet normal 0.6866652326227874 0.714704694010065 -0.132996461107326
    outer loop
      vertex 0 0.5 0
      vertex 0.48429158056431554 0 -0.18651741537364114
      vertex 0.47552825814757677 0 -0.23176274578121053
    endloop
  endfacet
  facet normal 0.6763385491537806 0.7184808524238548 -0.162331240458669
    outer loop
      vertex 0 0.5 0
      vertex 0.47552825814757677 0 -0.23176274578121053
      vertex 0.46488824294412573 0 -0.2760934145135084
    endloop
  endfacet
  facet normal 0.6638228606615747 0.7229550095239268 -0.191507868943661
    outer loop
      vertex 0 0.5 0
      vertex 0.46488824294412573 0 -0.2760934145135084
      vertex 0.4524135262330098 0 -0.3193344686738045
    endloop
  endfacet
  facet normal 0.6490553667964378 0.7280924208097908 -0.22047348500915073
    outer loop
      vertex 0 0.5 0
      vertex 0.4524135262330098 0 -0.3193344686738045
      vertex 0.43815334002193185 0 -0.3613152555762864
    endloop
  endfacet
  facet normal 0.61248554144168 0.74017373378291 -0.27749649609095584
    outer loop
      vertex 0.4045084971874737 0 -0.44083893921935485
      vertex 0 0.5 0
      vertex 0.4221639627510075 0 -0.4018700962342475
    endloop
  endfacet
  facet normal 0.6319671300092091 0.7338497163643369 -0.2491628792174021
    outer loop
      vertex 0.4221639627510075 0 -0.4018700962342475
      vertex 0 0.5 0
      vertex 0.43815334002193185 0 -0.3613152555762864
    endloop
  endfacet
  facet normal 0.5905374433619014 0.7470003221357603 -0.30537853021563116
    outer loop
      vertex 0.38525662138789474 0 -0.4780679923115172
      vertex 0 0.5 0
      vertex 0.4045084971874737 0 -0.44083893921935485
    endloop
  endfacet
  facet normal 0.026139299324909264 0.8317659911887767 -0.5545106607925178
    outer loop
      vertex 0 0 -0.75
      vertex 0 0.5 0
      vertex 0.03139525976465664 0 -0.7485200463212037
    endloop
  endfacet
  facet normal 0.07819644824495138 0.8305096570331482 -0.5514880098937395
    outer loop
      vertex 0.03139525976465664 0 -0.7485200463212037
      vertex 0 0.5 0
      vertex 0.06266661678215203 0 -0.7440860259858584
    endloop
  endfacet
  facet normal 0.12959693597098107 0.8280335645535747 -0.5454952338560205
    outer loop
      vertex 0.06266661678215203 0 -0.7440860259858584
      vertex 0 0.5 0
      vertex 0.09369065729286241 0 -0.7367154380465165
    endloop
  endfacet
  facet normal 0.17992795517601298 0.8244086337045952 -0.5366342661622545
    outer loop
      vertex 0.09369065729286241 0 -0.7367154380465165
      vertex 0 0.5 0
      vertex 0.12434494358242743 0 -0.7264373708464733
    endloop
  endfacet
  facet normal 0.2288119384429339 0.8197359292577383 -0.5250505719546826
    outer loop
      vertex 0.12434494358242743 0 -0.7264373708464733
      vertex 0 0.5 0
      vertex 0.15450849718747373 0 -0.7132923872213651
    endloop
  endfacet
  facet normal 0.2759165677399631 0.8141409717872362 -0.5109251664421446
    outer loop
      vertex 0.15450849718747373 0 -0.7132923872213651
      vertex 0 0.5 0
      vertex 0.18406227634233896 0 -0.6973323644161885
    endloop
  endfacet
  facet normal 0.441753669733286 0.7855341544723896 -0.43334719040801795
    outer loop
      vertex 0.2679133974894984 0 -0.6332459441265111
      vertex 0 0.5 0
      vertex 0.2938926261462366 0 -0.6067627457812106
    endloop
  endfacet
  facet normal 0.36372097594845626 0.8007689628123752 -0.47589507231268474
    outer loop
      vertex 0.21288964578253622 0 -0.6786202893495147
      vertex 0 0.5 0
      vertex 0.24087683705085772 0 -0.6572300100328976
    endloop
  endfacet
  facet normal 0.32096140032668363 0.8077671638591295 -0.4944653562094241
    outer loop
      vertex 0.18406227634233896 0 -0.6973323644161885
      vertex 0 0.5 0
      vertex 0.21288964578253622 0 -0.6786202893495147
    endloop
  endfacet
  facet normal 0.4040246489587615 0.7933053670858375 -0.4554455813668127
    outer loop
      vertex 0.24087683705085772 0 -0.6572300100328976
      vertex 0 0.5 0
      vertex 0.2679133974894984 0 -0.6332459441265111
    endloop
  endfacet
  facet normal 0.47683619827242874 0.7776071519369319 -0.40982234843115933
    outer loop
      vertex 0.2938926261462366 0 -0.6067627457812106
      vertex 0 0.5 0
      vertex 0.3187119948743449 0 -0.577884932081842
    endloop
  endfacet
endsolid OpenSCAD_Model
